<?xml version="1.0" standalone="no"?>
<!DOCTYPE svg PUBLIC "-//W3C//DTD SVG 20010904//EN"
 "http://www.w3.org/TR/2001/REC-SVG-20010904/DTD/svg10.dtd">
<svg version="1.0" xmlns="http://www.w3.org/2000/svg"
 width="500.000000pt" height="500.000000pt" viewBox="0 0 500.000000 500.000000"
 preserveAspectRatio="xMidYMid meet">

<g transform="translate(0.000000,500.000000) scale(0.100000,-0.100000)"
fill="#000000" stroke="none">
<path d="M2424 3691 c-22 -10 -79 -51 -125 -91 -46 -39 -120 -102 -163 -138
-43 -37 -97 -83 -120 -103 -39 -34 -359 -307 -651 -554 -205 -174 -225 -195
-225 -242 0 -67 69 -110 128 -81 16 8 71 50 122 94 51 43 114 97 141 119 83
70 572 487 620 529 25 23 83 73 129 111 46 39 107 91 137 116 85 74 82 75 228
-51 48 -41 108 -93 135 -115 26 -22 179 -152 339 -290 161 -137 314 -268 341
-290 26 -22 87 -74 135 -115 122 -105 130 -110 168 -117 26 -4 40 1 65 22 26
22 32 34 32 67 0 36 -6 47 -53 92 -29 28 -90 83 -137 121 -46 39 -101 85 -122
104 l-38 33 0 250 0 249 -25 24 c-22 23 -32 25 -118 25 -85 0 -96 -2 -115 -23
-20 -21 -22 -34 -22 -150 0 -70 -3 -127 -6 -127 -6 0 -154 124 -244 205 -25
22 -84 72 -130 110 -46 39 -113 96 -149 129 -113 100 -193 125 -277 87z"/>
<path d="M2328 3157 c-73 -62 -164 -139 -203 -172 -38 -32 -95 -80 -125 -106
-30 -26 -123 -105 -206 -176 -83 -70 -175 -148 -204 -173 -29 -25 -63 -54 -77
-65 l-24 -20 3 -500 3 -500 31 -55 c24 -43 43 -62 85 -85 l54 -30 805 -3 c549
-2 821 1 856 8 70 15 126 57 155 117 l24 48 3 501 3 500 -82 70 c-46 38 -125
105 -178 149 -52 44 -118 100 -146 125 -28 25 -89 77 -135 115 -46 39 -118
100 -159 136 -242 209 -269 229 -311 229 -36 0 -52 -10 -172 -113z m412 -850
c60 -21 60 -21 57 -457 l-2 -395 -295 0 -295 0 -2 395 c-3 436 -3 436 57 457
48 16 432 16 480 0z"/>
</g>
</svg>
