<?xml version="1.0" standalone="no"?>
<!DOCTYPE svg PUBLIC "-//W3C//DTD SVG 20010904//EN"
 "http://www.w3.org/TR/2001/REC-SVG-20010904/DTD/svg10.dtd">
<svg version="1.0" xmlns="http://www.w3.org/2000/svg"
 width="500.000000pt" height="500.000000pt" viewBox="0 0 500.000000 500.000000"
 preserveAspectRatio="xMidYMid meet">

<g transform="translate(0.000000,500.000000) scale(0.100000,-0.100000)"
fill="#000000" stroke="none">
<path d="M2119 3810 c-350 -44 -668 -274 -824 -594 -65 -134 -93 -228 -105
-361 -24 -267 50 -525 210 -736 151 -200 356 -335 600 -397 91 -23 125 -26
260 -26 135 0 169 3 263 27 114 28 217 72 307 130 l54 35 97 -92 c52 -51 207
-202 342 -336 136 -135 257 -250 270 -256 23 -13 62 -18 111 -16 40 3 102 67
111 115 17 90 22 84 -352 459 l-346 346 47 70 c229 344 229 798 2 1147 -193
296 -510 476 -859 489 -67 3 -152 1 -188 -4z m381 -250 c272 -81 485 -292 576
-570 25 -76 27 -100 28 -230 1 -168 -11 -223 -78 -365 -109 -229 -316 -395
-576 -461 -116 -29 -297 -25 -414 10 -478 143 -729 608 -580 1076 78 248 310
469 564 538 110 30 113 31 265 27 108 -2 157 -8 215 -25z"/>
</g>
</svg>
