<?xml version="1.0" standalone="no"?>
<!DOCTYPE svg PUBLIC "-//W3C//DTD SVG 20010904//EN"
 "http://www.w3.org/TR/2001/REC-SVG-20010904/DTD/svg10.dtd">
<svg version="1.0" xmlns="http://www.w3.org/2000/svg"
 width="500.000000pt" height="500.000000pt" viewBox="0 0 500.000000 500.000000"
 preserveAspectRatio="xMidYMid meet">

<g transform="translate(0.000000,500.000000) scale(0.100000,-0.100000)"
fill="#000000" stroke="none">
<path d="M2400 3894 c-232 -26 -409 -82 -583 -183 -120 -69 -195 -128 -302
-236 -198 -200 -322 -434 -382 -723 -22 -106 -22 -388 0 -494 63 -302 204
-561 413 -758 231 -218 511 -346 830 -381 392 -42 815 112 1107 404 202 203
343 475 391 756 20 120 21 331 1 447 -34 196 -106 377 -222 554 -68 104 -268
306 -369 372 -166 110 -352 187 -540 222 -83 15 -282 27 -344 20z m192 -550
c119 -84 107 -256 -22 -321 -53 -28 -101 -29 -155 -4 -111 50 -145 182 -74
281 60 83 169 102 251 44z m17 -590 c49 -34 51 -56 51 -454 l0 -370 95 0 c112
0 149 -14 170 -64 19 -44 4 -100 -33 -124 -23 -15 -60 -17 -312 -20 -157 -2
-305 0 -329 3 -94 14 -131 101 -72 167 l29 33 111 3 111 4 0 319 0 319 -94 0
c-86 0 -97 2 -124 25 -52 44 -47 119 10 159 34 24 353 23 387 0z"/>
</g>
</svg>
